<?xml version="1.0" encoding="utf-8"?>
<!-- Generator: Adobe Illustrator 23.0.1, SVG Export Plug-In . SVG Version: 6.00 Build 0)  -->
<svg version="1.1" id="Layer_1" xmlns="http://www.w3.org/2000/svg" xmlns:xlink="http://www.w3.org/1999/xlink" x="0px" y="0px"
	 viewBox="0 0 200 200" style="enable-background:new 0 0 200 200;" xml:space="preserve">
<style type="text/css">
	.st0{fill:#FFFFFF;}
</style>
<g>
	<path class="st0" d="M176.56,159.15c-0.42-0.66-0.81-1.38-1.36-1.92c-3.09-3-4.21-6.86-5.25-10.89c-0.65-2.54-1.53-5.74-3.41-7.09
		c-3.21-2.29-2.74-4.52-2.12-7.61c2.09-10.45-0.36-20.26-4.83-29.68c-3.95-8.34-9.2-15.85-15.27-22.74
		c-8.8-9.98-14.22-21.06-12.4-34.97c-0.18-8.72-0.46-17.62-3.98-26.02c-3.79-9.04-10.63-14.11-20.32-15.02
		c-3.7-0.35-7.53-0.24-11.2,0.29c-12.52,1.79-19.62,8.74-22.1,21.08c-1.65,8.24-0.76,16.51-0.36,24.78
		c0.56,11.57-2.77,21.81-10.16,30.79c-6.95,8.45-13.03,17.49-17.45,27.55c-3.52,7.99-5.86,16.23-5.01,25.12
		c0.07,0.68-0.24,1.53-0.65,2.11c-3.4,4.83-7.16,8.98-13.3,10.68c-4.18,1.15-6.8,4.71-6.33,9.19c0.67,6.46,0.68,12.69-0.89,19.1
		c-1.14,4.64,1.44,7.78,6.11,9.21c1.74,0.53,3.56,0.89,5.37,1.08c7.92,0.84,15.66,2.09,22.89,5.89c4.6,2.42,9.79,3.1,15.04,2.53
		c3.86-0.42,7.6-1.67,9.72-4.96c1.68-2.62,3.86-2.94,6.43-3.47c8.53-1.75,17.04-2.7,25.69-0.9c1.95,0.4,4,0.53,5.99,0.46
		c1.89-0.07,2.87,0.44,3.7,2.3c0,0,4.57,11.03,13.37,10.3c8.8-0.72,11.3-2.73,18.85-10.79c3.3-3.75,7.17-6.58,11.58-8.79
		c2.89-1.44,5.81-2.82,8.59-4.46C179.2,168.9,180.12,164.79,176.56,159.15z M98.03,39.78c0.69-5.86,4.68-10.25,9.34-10.29
		c4.76-0.04,9.06,4.42,9.42,10.4c0.16,2.69-0.55,5.47-1.15,8.15c-0.49,2.2-1.92,2.93-4.04,1.62c-0.58-0.36-1.26-0.54-2.16-0.91
		c1.64-3.09,2.25-6.1,0.74-9c-0.63-1.22-2.17-2.67-3.33-2.7c-1.17-0.03-2.79,1.33-3.47,2.51c-0.87,1.51-0.98,3.44-1.43,5.21
		C98.1,44.31,97.57,43.66,98.03,39.78z M79.88,33.33c2.31-2.58,5.3-2.71,7.77-0.23c2.62,2.64,3.61,6.03,3.29,9.57
		c-0.1,1.05-1.95,1.93-3.37,3.23c-0.52-2.24-0.58-3.81-1.25-5.05c-0.54-1.01-1.83-2.28-2.74-2.24c-0.85,0.03-2.01,1.5-2.38,2.57
		c-0.99,2.82-0.15,5.47,1.66,8.02c-0.7,0.54-1.35,1.04-1.97,1.52C76.54,46.54,76.08,37.57,79.88,33.33z M78.34,54.58
		c3.29-2.72,6.57-5.48,10.09-7.87c1.72-1.17,3.98-1.54,6.05-2.29c2.45,0.75,4.74,1.27,6.89,2.15c3.78,1.55,7.45,3.37,11.19,5.01
		c5.34,2.33,6.03,6.36,1.71,10.31c-0.19,0.18-0.37,0.39-0.6,0.51c-5.17,2.68-10.19,5.69-15.56,7.9c-3.81,1.57-7.7,0.55-10.97-2.29
		c-1.84-1.59-3.94-2.89-5.76-4.49c-1.41-1.24-2.79-2.63-3.81-4.2C76.52,57.71,76.81,55.85,78.34,54.58z M78.52,184.65
		c-2.65,4.57-7.16,5.43-13.61,5.68c-2.23-0.6-6.29-1.02-9.69-2.75c-7.34-3.74-15.11-5.14-23.13-5.92c-1.55-0.15-3.12-0.42-4.62-0.84
		c-4.06-1.12-5.91-3.31-4.74-7.31c1.78-6.04,1.62-11.94,0.86-18.04c-0.49-3.96,1.27-6.63,5.16-7.77c5.51-1.61,9.36-4.89,12.6-9.51
		c3.79-5.39,8.91-5.73,13.4-0.82c2.78,3.04,5.14,6.64,6.94,10.35c3.03,6.25,6.74,11.97,11.17,17.28c1.67,2,3.14,4.18,4.57,6.36
		C80.2,175.58,81.2,180.03,78.52,184.65z M121.6,167.5c-11.94,7.81-24.44,10.67-38.13,4.57c-4.44-1.98-6.22-6.06-9.26-9.57
		c1.03-0.22,1.7-0.33,2.34-0.51c3.13-0.89,4.85-3.31,3.77-6.34c-0.97-2.73-2.3-5.62-4.29-7.62c-3.6-3.62-7.58-6.97-11.81-9.82
		c-9.97-6.71-13.17-14.3-10.21-26c1.88-7.43,5.47-14.06,10.08-20.22c-0.83,1.68-1.61,3.38-2.49,5.02
		c-2.86,5.34-5.17,10.86-5.8,16.97c-0.54,5.28,0.42,10.21,3.77,15.27c0.22-1.62,0.39-2.66,0.49-3.7c0.7-7.37,2.74-14.36,5.8-21.08
		c4.62-10.15,9.66-20.14,12.33-31.06c0.7-2.85,1.14-5.76,1.81-9.16c2.01,1.56,3.94,2.86,5.64,4.4c4.72,4.27,9.97,4.69,15.53,2.14
		c3.87-1.78,7.63-3.8,11.36-5.87c1.57-0.87,2.91-2.14,4.41-3.26c1.88,5.42,3.52,10.91,5.67,16.19c2.83,6.93,6.24,13.63,9.07,20.56
		c2.79,6.84,5.33,13.79,7.63,20.8c0.7,2.13,1.99,2.31,3.45,2.12c0.72-0.1,1.63-1.26,1.88-2.11c1.49-5.13,0.8-10.21-0.89-15.16
		c-1.82-5.35-4.58-10.16-8.59-14.2c-0.43-0.43-0.79-0.92-1.15-1.41c-0.08-0.11-0.03-0.32-0.04-0.6c0.25,0.03,0.55-0.04,0.68,0.09
		c8.45,8.46,14.14,18.28,13.44,30.61c-0.2,3.51,0.53,5.16,3.67,6.62c2.44,1.13,4.58,3.14,6.47,5.13c1.51,1.59,1.69,3.74-0.04,5.8
		c0.23-3.62-1.77-5.73-4.43-7.3c-4.29-2.54-8.67-4.98-13.95-4.39c-2.54,0.28-3.87,1.94-4.78,4.26c-0.48,1.23-1.42,2.49-2.5,3.23
		c-3.07,2.11-4.94,5.02-5.64,8.51c-0.83,4.17-1.1,8.46-1.76,12.67c-0.67,4.2-1.49,8.38-2.33,12.55
		C122.65,166.29,122.18,167.12,121.6,167.5z M150.86,136.43c-0.5,0.6-1.07,1.16-1.71,1.61c-2.6,1.83-5.35,3.73-8.64,2.07
		c-3.26-1.65-3.86-4.92-4.07-7.84c-0.01-4.93,2.13-6.85,6.42-5.58c2.62,0.77,5.16,2.11,7.44,3.63
		C152.61,131.87,152.66,134.29,150.86,136.43z M168.98,171.79c-7.16,3.39-13.76,7.35-19.04,13.48c-3.35,3.9-7.91,6.26-13.13,7.02
		c-8.12,1.18-14.74-4.7-14.35-12.86c0.1-2.16,0.37-4.38,1.02-6.43c2.78-8.78,4.39-17.73,4.9-26.93c0.15-2.64,1-5.33,2.02-7.79
		c0.71-1.71,2.27-3.06,3.65-4.84c0.95,2.74,1.44,4.89,2.4,6.8c2.03,4.03,5.55,5.67,9.81,4.22c2.83-0.96,5.59-2.46,7.99-4.24
		c4.06-3,9.98-1.84,12.01,2.85c0.86,1.98,1.05,4.24,1.88,6.24c1.15,2.77,2.21,5.73,4.03,8.04
		C178.01,164.8,177.57,167.71,168.98,171.79z"/>
	<path class="st0" d="M101.04,62.31c4.11-1.86,7.98-4.22,11.94-6.38c0.19-0.11,0.19-0.57,0.46-1.53c-1.62,0.68-2.8,1.08-3.89,1.66
		c-2.99,1.59-5.88,3.41-8.93,4.87c-6.14,2.94-11.82,2.03-16.95-2.44c-1.29-1.13-2.59-2.23-3.89-3.35c-0.18,0.13-0.35,0.27-0.53,0.4
		c0.1,0.38,0.09,0.85,0.31,1.14C84.82,63.54,93.2,65.85,101.04,62.31z"/>
</g>
</svg>
