<?xml version="1.0" encoding="iso-8859-1"?>
<!-- Generator: Adobe Illustrator 19.0.0, SVG Export Plug-In . SVG Version: 6.00 Build 0)  -->
<svg version="1.1" id="Layer_1" xmlns="http://www.w3.org/2000/svg" xmlns:xlink="http://www.w3.org/1999/xlink" x="0px" y="0px"
	 viewBox="0 0 512 512" style="enable-background:new 0 0 512 512;" xml:space="preserve">
<polygon style="fill:#CEE8FA;" points="434.188,320.607 434.188,193.564 77.812,193.564 77.812,426.969 327.826,426.969 "/>
<g>
	<path style="fill:#2D527C;" d="M496.438,147.084c8.594,0,15.562-6.967,15.562-15.562V53.69c0-8.595-6.969-15.562-15.562-15.562
		h-87.149V22.575c0-8.595-6.969-15.562-15.562-15.562s-15.562,6.967-15.562,15.562v15.553H133.836V22.575
		c0-8.595-6.967-15.562-15.562-15.562s-15.562,6.967-15.562,15.562v15.553H15.562C6.967,38.128,0,45.095,0,53.69v77.832v357.904
		c0,8.595,6.967,15.562,15.562,15.562h480.875c8.594,0,15.562-6.967,15.562-15.562V193.564c0-8.595-6.969-15.562-15.562-15.562
		c-8.594,0-15.562,6.967-15.562,15.562v280.299H31.125V147.084h362.602c8.594,0,15.562-6.967,15.562-15.562
		s-6.969-15.562-15.562-15.562H31.125V69.252h71.587v7.781c0,8.595,6.967,15.562,15.562,15.562s15.562-6.967,15.562-15.562v-7.781
		h244.328v7.781c0,8.595,6.969,15.562,15.562,15.562s15.562-6.967,15.562-15.562v-7.781h71.587v62.269
		C480.875,140.117,487.844,147.084,496.438,147.084z"/>
	<path style="fill:#2D527C;" d="M77.812,178.002c-8.595,0-15.562,6.967-15.562,15.562v233.405c0,8.595,6.967,15.562,15.562,15.562
		h250.015h106.362c8.594,0,15.562-6.967,15.562-15.562V320.607V193.564c0-8.595-6.969-15.562-15.562-15.562H77.812z M93.374,411.407
		v-202.28h325.252v105.035l-97.244,97.246H93.374z M365.398,411.407l53.228-53.229v53.228h-53.228V411.407z"/>
	<path style="fill:#2D527C;" d="M246.278,336.843v-3.519c0-12.408-7.593-14.815-17.778-14.815c-6.297,0-8.334-5.556-8.334-11.111
		c0-5.556,2.037-11.113,8.334-11.113c7.037,0,14.445-0.926,14.445-15.926c0-10.741-6.111-13.334-13.704-13.334
		c-9.074,0-13.704,2.222-13.704,9.445c0,6.297-2.778,10.556-13.519,10.556c-13.334,0-15.002-2.778-15.002-11.669
		c0-14.445,10.372-33.149,42.225-33.149c23.519,0,41.299,8.519,41.299,33.521c0,13.519-5,26.112-14.26,30.373
		c10.926,4.074,18.89,12.223,18.89,27.223v3.519c0,30.373-20.927,41.855-46.853,41.855c-31.855,0-44.077-19.445-44.077-35.003
		c0-8.334,3.519-10.556,13.706-10.556c11.852,0,14.815,2.594,14.815,9.63c0,8.704,8.148,10.741,16.482,10.741
		C241.834,353.51,246.278,348.881,246.278,336.843z"/>
	<path style="fill:#2D527C;" d="M298.873,274.432l-5.371,3.333c-1.667,1.111-3.333,1.482-4.63,1.482
		c-5.371,0-9.074-5.741-9.074-11.482c0-3.889,1.667-7.593,5.371-9.815l24.445-14.817c1.482-0.926,3.333-1.296,5.371-1.296
		c5.926,0,12.778,3.519,12.778,9.074v117.785c0,5.928-7.223,8.889-14.445,8.889s-14.445-2.963-14.445-8.889V274.432z"/>
</g>
<g>
</g>
<g>
</g>
<g>
</g>
<g>
</g>
<g>
</g>
<g>
</g>
<g>
</g>
<g>
</g>
<g>
</g>
<g>
</g>
<g>
</g>
<g>
</g>
<g>
</g>
<g>
</g>
<g>
</g>
</svg>
