<svg fill="#000000" xmlns="http://www.w3.org/2000/svg"  viewBox="0 0 100 100" width="200px" height="200px"><path d="M 50 17 C 46.833333 17 44.421991 17.79584 42.802734 18.605469 C 41.183477 19.415097 40.292969 20.292969 40.292969 20.292969 A 1.0001 1.0001 0 0 0 40 21 L 40 67 A 1.0001 1.0001 0 0 0 40.080078 67.394531 L 47.847656 85.517578 C 48.237523 86.426428 49.138562 86.935547 50 86.935547 C 50.861438 86.935547 51.763158 86.424843 52.152344 85.515625 L 59.919922 67.394531 A 1.0001 1.0001 0 0 0 60 67 L 60 21 A 1.0001 1.0001 0 0 0 59.707031 20.292969 C 59.707031 20.292969 58.816523 19.415097 57.197266 18.605469 C 55.578009 17.79584 53.166667 17 50 17 z M 50 19 C 52.833333 19 54.921991 19.70416 56.302734 20.394531 C 57.480178 20.983253 57.843982 21.367645 58 21.513672 L 58 27 L 56.5 27 A 0.50005 0.50005 0 1 0 56.5 28 L 58 28 L 58 30 L 42 30 L 42 28 L 53.5 28 A 0.50005 0.50005 0 1 0 53.5 27 L 42 27 L 42 21.513672 C 42.156018 21.367645 42.519822 20.983253 43.697266 20.394531 C 45.078009 19.70416 47.166667 19 50 19 z M 42 31 L 58 31 L 58 34 L 50 34 L 42 34 L 42 31 z M 42 36 L 44 36 L 44 63.5 A 0.50005 0.50005 0 1 0 45 63.5 L 45 36 L 47 36 L 47 66 L 42 66 L 42 36 z M 48 36 L 50 36 L 52 36 L 52 39.5 A 0.50005 0.50005 0 1 0 53 39.5 L 53 36 L 55 36 L 55 55.5 A 0.50005 0.50005 0 1 0 56 55.5 L 56 36 L 58 36 L 58 66 L 56 66 L 56 62.5 A 0.50005 0.50005 0 0 0 55.492188 61.992188 A 0.50005 0.50005 0 0 0 55 62.5 L 55 66 L 53 66 L 53 42.5 A 0.50005 0.50005 0 0 0 52.492188 41.992188 A 0.50005 0.50005 0 0 0 52 42.5 L 52 66 L 50 66 L 48 66 L 48 36 z M 55.492188 57.992188 A 0.50005 0.50005 0 0 0 55 58.5 L 55 59.5 A 0.50005 0.50005 0 1 0 56 59.5 L 56 58.5 A 0.50005 0.50005 0 0 0 55.492188 57.992188 z M 42.515625 68 L 50 68 L 57.484375 68 L 52.769531 79 L 47.230469 79 L 42.515625 68 z M 47.658203 80 L 52.341797 80 L 50.314453 84.728516 C 50.239639 84.903298 50.139312 84.935547 50 84.935547 C 49.860688 84.935547 49.76068 84.903667 49.685547 84.728516 L 47.658203 80 z"/></svg>