<svg xmlns="http://www.w3.org/2000/svg" version="1.1" xmlns:xlink="http://www.w3.org/1999/xlink" xmlns:svgjs="http://svgjs.dev/svgjs" width="1000" height="679" viewBox="0 0 1000 679"><g transform="matrix(1,0,0,1,-0.6060606060606233,27.22283000290747)"><svg viewBox="0 0 396 269" data-background-color="#caf0f8" preserveAspectRatio="xMidYMid meet" height="679" width="1000" xmlns="http://www.w3.org/2000/svg" xmlns:xlink="http://www.w3.org/1999/xlink"><defs></defs><g id="tight-bounds" transform="matrix(1,0,0,1,0.2400000000000091,0.2144264393116373)"><svg viewBox="0 0 395.52 268.5711471213768" height="268.5711471213768" width="395.52"><g><svg viewBox="0 0 395.52 268.5711471213768" height="268.5711471213768" width="395.52"><g transform="matrix(1,0,0,1,0,176.9332414755776)"><svg viewBox="0 0 395.52 91.6379056457992" height="91.6379056457992" width="395.52"><g><svg viewBox="0 0 395.52 91.6379056457992" height="91.6379056457992" width="395.52"><g><svg viewBox="0 0 395.52 91.6379056457992" height="91.6379056457992" width="395.52"><g transform="matrix(1,0,0,1,0,0)"><svg width="395.52" viewBox="-0.7803001403808594 -31.45406150817871 185.46951293945312 42.97137451171875" height="91.6379056457992" data-palette-color="#0088b6"><path d="M6.907 11.441l-7.687-32.298 5.224-1.243 7.687 32.297zM18.616 8.965l-4.516-25.056 3.957-0.713 1.073 3.251 0.335-0.06c0.663-1.434 1.64-2.609 2.931-3.526 1.29-0.923 2.824-1.545 4.602-1.866v0c5.308-0.957 8.48 1.439 9.516 7.187v0l3.064 17.006-4.911 0.885-2.953-16.386c-0.337-1.87-0.993-3.103-1.967-3.7-0.975-0.597-2.272-0.749-3.893-0.457v0c-1.115 0.201-2.098 0.666-2.949 1.395-0.852 0.723-1.465 1.643-1.84 2.76-0.368 1.116-0.432 2.34-0.191 3.673v0l2.653 14.722zM46.013 4.495l-2.487-21.195-3.645 0.428-0.48-4.092 3.645-0.428-0.433-3.695c-0.207-1.768 0.077-3.288 0.855-4.56 0.776-1.279 2.224-2.043 4.342-2.292v0c0.636-0.075 1.315-0.09 2.038-0.047 0.717 0.05 1.327 0.126 1.83 0.228v0l0.405 3.456-2.453 0.288c-1.536 0.18-2.218 1.009-2.045 2.485v0l0.417 3.556 4.758-0.558 0.48 4.092-4.758 0.558 2.487 21.194zM69.316 3.052c-4.025 0.266-7.113-0.623-9.266-2.666-2.159-2.036-3.387-5.308-3.685-9.818v0c-0.297-4.504 0.49-7.909 2.362-10.218 1.865-2.308 4.81-3.595 8.835-3.86v0c4.025-0.266 7.123 0.622 9.296 2.663 2.172 2.041 3.407 5.314 3.705 9.817v0c0.298 4.51-0.496 7.917-2.383 10.219-1.885 2.309-4.84 3.597-8.864 3.863zM69.045-1.049c2.448-0.162 4.18-0.997 5.196-2.508 1.017-1.504 1.423-3.802 1.218-6.895v0l-0.031-0.479c-0.204-3.093-0.909-5.318-2.114-6.675-1.205-1.357-3.032-1.955-5.48-1.793v0c-2.415 0.159-4.13 0.991-5.147 2.494-1.017 1.504-1.423 3.802-1.219 6.895v0l0.032 0.479c0.204 3.093 0.909 5.318 2.114 6.675 1.206 1.364 3.016 1.966 5.431 1.807zM85.812 1.744l0.316-33.198 16.939 0.161c1.807 0.017 3.41 0.369 4.81 1.056 1.393 0.693 2.481 1.664 3.263 2.911 0.775 1.254 1.155 2.688 1.139 4.301v0c-0.017 1.84-0.539 3.432-1.566 4.775-1.033 1.344-2.375 2.268-4.026 2.772v0l-0.002 0.19c1.936 0.438 3.487 1.38 4.654 2.824 1.16 1.451 1.729 3.29 1.707 5.517v0c-0.028 2.967-0.986 5.191-2.873 6.673-1.881 1.482-4.355 2.209-7.421 2.179v0zM91.366-17.514l10.359 0.099c1.513 0.014 2.734-0.401 3.662-1.245 0.928-0.851 1.399-1.97 1.412-3.357v0c0.015-1.547-0.394-2.711-1.227-3.492-0.826-0.781-1.966-1.179-3.419-1.193v0l-10.699-0.101zM91.226-2.804l11.179 0.106c1.613 0.015 2.877-0.376 3.792-1.174 0.908-0.798 1.37-2.05 1.385-3.757v0c0.016-1.68-0.439-2.961-1.363-3.843-0.925-0.875-2.291-1.322-4.098-1.339v0l-10.799-0.103zM117.765 2.573l3.236-33.042 12.72 1.246c5.202 0.509 9.082 2.266 11.641 5.269 2.559 3.01 3.566 7.292 3.023 12.846v0c-0.544 5.553-2.363 9.559-5.457 12.016-3.094 2.45-7.241 3.42-12.443 2.911v0zM123.558-1.482l7.375 0.722c3.497 0.342 6.262-0.335 8.297-2.03 2.028-1.697 3.239-4.553 3.633-8.567v0l0.051-0.528c0.396-4.047-0.236-7.1-1.896-9.158-1.667-2.059-4.249-3.26-7.746-3.602v0l-7.374-0.723zM151.346 6.397l6.141-32.627 4.855 0.914 11.8 24.18c0.257 0.544 0.587 1.315 0.99 2.313v0l0.254-0.054 0.399-2.387 3.912-20.785 4.992 0.939-6.141 32.627-4.757-0.895-11.793-24.433c-0.196-0.363-0.397-0.794-0.602-1.294-0.198-0.499-0.341-0.855-0.429-1.068v0l-0.255 0.003-0.408 2.437-3.966 21.07z" opacity="1" transform="matrix(1,0,0,1,0,0)" fill="#0088b6" class="undefined-text-0" data-fill-palette-color="primary" id="text-0"></path></svg></g></svg></g></svg></g></svg></g><g transform="matrix(1,0,0,1,123.62493433254845,0)"><svg viewBox="0 0 148.27013133490308 148.27013133490308" height="148.27013133490308" width="148.27013133490308"><g><svg xmlns="http://www.w3.org/2000/svg" viewBox="2.5 2.5 123 123" x="0" y="0" height="148.27013133490308" width="148.27013133490308" class="icon-icon-0" data-fill-palette-color="accent" id="icon-0"><path d="M64 125.5A61.5 61.5 0 1 1 125.5 64 61.57 61.57 0 0 1 64 125.5Zm0-120A58.5 58.5 0 1 0 122.5 64 58.566 58.566 0 0 0 64 5.5Z" fill="#00b4d8" data-fill-palette-color="accent"></path><path d="M74.308 64.503H40.785a1.184 1.184 0 1 1 0-2.368h33.523V52.7H40.785a1.184 1.184 0 1 1 0-2.368h33.523V40.9H40.785a1.184 1.184 0 1 1 0-2.368h34.066a4.039 4.039 0 0 1 3.472-1.83h12.12v-4.538a1.7 1.7 0 0 0-1.673-1.71H19.386a1.647 1.647 0 0 0-1.606 1.643v40.445h56.528Zm-40.193-0.655l-4.8 3.218a1.204 1.204 0 0 1-0.796 0.284 1.313 1.313 0 0 1-0.86-0.314 1.052 1.052 0 0 1 0-1.617l3.36-2.22-3.318-2.188a1.084 1.084 0 0 1-0.42-0.84 1.063 1.063 0 0 1 0.378-0.81 1.315 1.315 0 0 1 1.696 0l4.726 3.164a0.866 0.866 0 0 1 0.344 0.674 0.85 0.85 0 0 1-0.31 0.65Zm0-11.682l-4.8 3.218a1.204 1.204 0 0 1-0.796 0.284 1.313 1.313 0 0 1-0.86-0.314 1.052 1.052 0 0 1 0-1.617l3.36-2.22L27.7 49.33a1.096 1.096 0 0 1-0.42-0.84 1.075 1.075 0 0 1 0.379-0.81 1.31 1.31 0 0 1 1.695 0l4.726 3.163a0.867 0.867 0 0 1 0.344 0.675 0.85 0.85 0 0 1-0.31 0.648Zm0-11.681l-4.8 3.218a1.204 1.204 0 0 1-0.796 0.284 1.313 1.313 0 0 1-0.86-0.314 1.053 1.053 0 0 1 0-1.618l3.36-2.22-3.318-2.187a1.096 1.096 0 0 1-0.42-0.84 1.075 1.075 0 0 1 0.379-0.81 1.314 1.314 0 0 1 1.695 0l4.726 3.164a0.866 0.866 0 0 1 0.344 0.674 0.85 0.85 0 0 1-0.31 0.649Z" fill="#00b4d8" data-fill-palette-color="accent"></path><path d="M78.323 39.07a1.503 1.503 0 0 0-1.645 1.295v5.65h33.542v-5.65a1.503 1.503 0 0 0-1.644-1.295H78.323ZM62.107 87.161H46.2a11.51 11.51 0 0 1-2.494 9.345h21.019a11.03 11.03 0 0 1-2.62-9.345ZM110.22 48.384H76.678v38.999l18.228 0.023h15.314Zm-22.757 23.3a1.16 1.16 0 0 1 0 1.784 1.465 1.465 0 0 1-1.887 0.001l-0.006-0.005-5.16-4.657a0.902 0.902 0 0 1 0-1.361l5.16-4.656a1.464 1.464 0 0 1 1.892-0.005 1.159 1.159 0 0 1 0 1.784l-4.094 3.557Zm9.675-7.455l-5.363 8.969a1.379 1.379 0 0 1-1.193 0.648 1.48 1.48 0 0 1-0.607-0.13 1.271 1.271 0 0 1-0.702-0.762 1.126 1.126 0 0 1 0.109-0.927l5.356-8.969a1.428 1.428 0 0 1 1.804-0.521 1.273 1.273 0 0 1 0.704 0.763 1.129 1.129 0 0 1-0.108 0.929Zm9.322 4.575l-5.54 4.64a1.424 1.424 0 0 1-0.937 0.341 1.44 1.44 0 0 1-0.945-0.345 1.159 1.159 0 0 1 0-1.784l4.095-3.557-4.095-3.558a1.159 1.159 0 0 1 0-1.784 1.464 1.464 0 0 1 1.887 0l5.535 4.637a0.903 0.903 0 0 1 0 1.41ZM74.308 74.91H17.824v8.173a1.647 1.647 0 0 0 1.606 1.643h54.878ZM94.915 89.774H76.678v6.477a1.503 1.503 0 0 0 1.645 1.296h30.198a1.503 1.503 0 0 0 1.644-1.296v-6.458Zm-0.922 5.621a1.735 1.735 0 1 1 1.73-1.735 1.734 1.734 0 0 1-1.73 1.735Z" fill="#00b4d8" data-fill-palette-color="accent"></path></svg></g></svg></g><g></g></svg></g></svg><rect width="395.52" height="268.5711471213768" fill="none" stroke="none" visibility="hidden"></rect></g></svg></g></svg>